<?xml version="1.0" standalone="no"?>
<!DOCTYPE svg PUBLIC "-//W3C//DTD SVG 1.1//EN" "http://www.w3.org/Graphics/SVG/1.1/DTD/svg11.dtd" >
<svg xmlns="http://www.w3.org/2000/svg">
<metadata>Generated by IcoMoon</metadata>
<defs>
<font id="supplier" horiz-adv-x="1024">
<font-face units-per-em="1024" ascent="960" descent="-64" />
<missing-glyph horiz-adv-x="1024" />
<glyph unicode="&#x20;" horiz-adv-x="512" d="" />
<glyph unicode="&#xe900;" glyph-name="tab_cart_active" horiz-adv-x="1323" d="M1285.020 819.451h-1023.533l-20.545 140.549h-240.941v-80.314h180.706l80.781-599.762c0-89.414 73.184-161.923 163.429-161.923h621.031c90.246 0 145.746 70.015 163.429 161.923l75.644 539.527zM457.601 65.538c36.107 0 65.372-28.995 65.372-64.769s-29.265-64.769-65.372-64.769c-36.107 0-65.372 28.995-65.372 64.769s29.265 64.769 65.372 64.769v0zM1111.318 0.769c0-35.774-29.265-64.769-65.372-64.769s-65.372 28.995-65.372 64.769c0 35.774 29.265 64.769 65.372 64.769s65.372-28.995 65.372-64.769zM963.765 337.569h-421.647v80.314h421.647v-80.314zM1003.922 598.588v-80.314h-501.961v80.314h501.961z" />
<glyph unicode="&#xe901;" glyph-name="tab_cart" horiz-adv-x="1323" d="M1285.020 819.451l-75.644-539.527c-17.683-91.907-73.184-161.923-163.429-161.923h-621.031c-90.246 0-163.429 72.509-163.429 161.923l-80.781 599.762h-180.706v80.314h240.941l101.522-680.076c0-53.661 28.292-82.904 82.452-82.904h621.031c54.16 0 65.699 25.713 78.446 82.904l60.235 459.213h-823.216l-18.948 80.314h942.556zM457.601 65.538c36.107 0 65.372-28.995 65.372-64.769s-29.265-64.769-65.372-64.769c-36.107 0-65.372 28.995-65.372 64.769s29.265 64.769 65.372 64.769v0zM1111.318 0.769c0-35.774-29.265-64.769-65.372-64.769s-65.372 28.995-65.372 64.769c0 35.774 29.265 64.769 65.372 64.769s65.372-28.995 65.372-64.769zM1003.922 598.588v-80.314h-501.961v80.314h501.961zM963.765 337.569h-421.647v80.314h421.647v-80.314z" />
<glyph unicode="&#xe902;" glyph-name="tab_cate_active" d="M0 960h471.040v-471.040h-471.040v471.040zM0 407.040h471.040v-471.040h-471.040v471.040zM552.96 960h471.040v-471.040h-471.040v471.040zM552.96 407.040h471.040v-471.040h-471.040v471.040z" />
<glyph unicode="&#xe903;" glyph-name="tab_cate" d="M0 960h471.040v-471.040h-471.040v471.040zM389.12 878.080h-307.2v-307.2h307.2v307.2zM0 407.040h471.040v-471.040h-471.040v471.040zM389.12 325.12h-307.2v-307.2h307.2v307.2zM552.96 960h471.040v-471.040h-471.040v471.040zM942.080 878.080h-307.2v-307.2h307.2v307.2zM552.96 407.040h471.040v-471.040h-471.040v471.040zM942.080 325.12h-307.2v-307.2h307.2v307.2z" />
<glyph unicode="&#xe904;" glyph-name="tab_home_active" horiz-adv-x="1152" d="M182.136-64c0 0-1.048 246.638-1.572 369.956-0.174 40.926-0.522 122.777-0.522 122.777l48.423-29.637h-228.465l560.024 560.904 565.746-547.42h-221.782l45.252 33.891v-510.471h-335.51v309.678l33.634-33.582-195.959-5.844 39.426 39.426v-309.678h-308.696z" />
<glyph unicode="&#xe905;" glyph-name="tab_home" horiz-adv-x="1109" d="M162.423-64l-1.572 369.956c-0.174 40.926 0 106.623 0 106.623h-160.851l47.464 53.799 492.846 493.621 565.746-547.42h-176.53v-476.58h-335.51v276.096h-122.899v-276.096h-308.695zM394.262 13.772v275.983h275.983v-256.27h177.418v433.327h98.565l-404.118 374.909-384.405-374.909h78.852v-453.040h157.705z" />
<glyph unicode="&#xe906;" glyph-name="tab_order_active" d="M0 960v-1024h1024v1024h-1024zM839.68 632.32h-655.36v81.92h655.36v-81.92zM839.68 427.52h-655.36v81.92h655.36v-81.92zM184.32 222.72v81.92h655.36v-81.92h-655.36z" />
<glyph unicode="&#xe907;" glyph-name="tab_order" d="M0 960h1024v-1024h-1024v1024zM942.080 878.080h-860.16v-860.16h860.16v860.16zM839.68 632.32h-655.36v81.92h655.36v-81.92zM839.68 427.52h-655.36v81.92h655.36v-81.92zM184.32 222.72v81.92h655.36v-81.92h-655.36z" />
<glyph unicode="&#xe908;" glyph-name="tab_uc_active" d="M731.995 50.412l-54.062 10.157c-25.916 4.869-46.925 30.573-46.925 57.559v69.508c27.389 32.191 35.548 81.603 45.089 135.791 15.042-3.591 19.487 16.792 27.712 56.261s33.963 79.914 10.691 84.959c-3.094 0.671-6.011 0.703-8.762 0.163l8.866 132.623c3.701 55.371-19.768 116.601-53.998 131.394-56.72 24.512-74.231 37.509-109.503 44.513s-69.878-2.818-106.545-14.836c-36.667-12.018-69.907-43.284-97.31-60.15s-41.674-55.036-38.606-100.921l8.861-132.546c-2.629 0.459-5.409 0.398-8.349-0.239-23.272-5.045 2.466-45.491 10.691-84.959s12.67-59.851 25.568-57.055c11.555-53.49 19.462-102.837 46.825-134.997v-69.508c0-26.92-21.179-52.245-47.151-56.541l-50.772-8.398c60.494-35.080 133.153-55.75 217.127-55.75 85.448 0 159.286 19.457 220.553 52.972zM9.482 448c0 282.77 224.735 512 501.961 512s501.961-229.23 501.961-512c0-282.77-224.736-512-501.961-512s-501.961 229.23-501.961 512z" />
<glyph unicode="&#xe909;" glyph-name="tab_uc" d="M390.412 208.116v-69.508c0-26.92-21.602-52.245-48.094-56.541l-108.032-17.518c-79.666-12.918 86.771 3.319 82.284-77.434h347.576c-22.418 76.216 214.008 57.769 134.668 72.383l-116.994 21.55c-26.434 4.869-47.863 30.573-47.863 57.559v69.508c27.937 32.191 36.259 81.603 45.991 135.791 15.343-3.591 19.877 16.792 28.266 56.261s34.643 79.914 10.905 84.959c-3.156 0.671-6.131 0.703-8.937 0.163l9.043 132.623c3.776 55.371-20.163 116.601-55.078 131.394-57.854 24.512-75.715 37.509-111.693 44.513s-71.276-2.818-108.676-14.836c-37.4-12.018-71.305-43.284-99.256-60.15s-42.507-55.036-39.378-100.921l9.038-132.546c-2.682 0.459-5.517 0.398-8.516-0.239-23.738-5.045 2.515-45.491 10.905-84.959s12.923-59.851 26.080-57.055c11.786-53.49 19.851-102.837 47.761-134.997zM0 448c0 282.77 229.23 512 512 512s512-229.23 512-512c0-282.77-229.23-512-512-512s-512 229.23-512 512zM942.080 448c0 260.148-169.932 430.080-430.080 430.080s-430.080-169.932-430.080-430.080c0-260.148 169.932-430.080 430.080-430.080s430.080 169.932 430.080 430.080z" />
<glyph unicode="&#xe90a;" glyph-name="btn_add_cart_1" d="M0 832.38c0 70.483 57.249 127.62 127.62 127.62h768.76c70.482 0 127.62-57.249 127.62-127.62v-768.76c0-70.482-57.249-127.62-127.62-127.62h-768.76c-70.483 0-127.62 57.249-127.62 127.62v768.76zM563.2 396.8h256v102.4h-256v256h-102.4v-256h-256v-102.4h256v-256h102.4v256z" />
<glyph unicode="&#xe90b;" glyph-name="uc_icon_address" horiz-adv-x="776" d="M386.132-64c-95.224 0-386.132 424.613-386.132 637.868s172.877 386.132 386.132 386.132c213.255 0 386.132-172.877 386.132-386.132s-290.908-637.868-386.132-637.868zM386.132 437.586c75.266 0 136.282 61.016 136.282 136.282s-61.016 136.282-136.282 136.282c-75.266 0-136.282-61.016-136.282-136.282s61.016-136.282 136.282-136.282z" />
<glyph unicode="&#xe90c;" glyph-name="uc_icon_fav" horiz-adv-x="1045" d="M403.879 43.789c0 0-261.333 269.474-332.606 377.263-44.358 57.004-71.273 133.569-71.273 215.579 0 178.591 127.639 323.368 285.091 323.368 50.998 0 100.74-15.87 142.558-42.927s75.713-74.011 95.017-118.757c38.609 89.493 135.579 161.684 237.576 161.684 157.451 0 285.091-144.777 285.091-323.368 0-82.010-26.915-158.574-71.273-215.579-71.273-107.789-332.606-377.263-332.606-377.263s-106.909-107.789-118.788-107.789l-118.788 107.789z" />
<glyph unicode="&#xe90d;" glyph-name="icon_radio_normal" d="M512 960c282.77 0 512-229.23 512-512s-229.23-512-512-512c-282.77 0-512 229.23-512 512s229.23 512 512 512z" />
<glyph unicode="&#xe90e;" glyph-name="icon_radio_selected" d="M0 448c0 282.77 229.168 512 512 512 282.77 0 512-229.168 512-512 0-282.77-229.168-512-512-512-282.77 0-512 229.168-512 512zM182.857 412.26l208.87-208.87 444.951 444.951-55.659 55.659-392.725-392.725-155.399 155.399-50.037-54.414z" />
<glyph unicode="&#xe90f;" glyph-name="drawer2" d="M1016.988 307.99l-256 320c-6.074 7.592-15.266 12.010-24.988 12.010h-448c-9.72 0-18.916-4.418-24.988-12.010l-256-320c-4.538-5.674-7.012-12.724-7.012-19.99v-288c0-35.346 28.654-64 64-64h896c35.348 0 64 28.654 64 64v288c0 7.266-2.472 14.316-7.012 19.99zM960 256h-224l-128-128h-192l-128 128h-224v20.776l239.38 299.224h417.24l239.38-299.224v-20.776z" />
<glyph unicode="&#xe910;" glyph-name="icon_cart_add" horiz-adv-x="1285" d="M1285.020 819.451l-75.644-539.527c-17.683-91.907-73.184-161.923-163.429-161.923h-621.031c-90.246 0-163.429 72.509-163.429 161.923l-80.781 599.762h-180.706v80.314h240.941l101.522-680.076c0-53.661 28.292-82.904 82.452-82.904h621.031c54.16 0 65.699 25.713 78.446 82.904l60.235 459.213h-823.216l-18.948 80.314h942.556zM457.601 65.538c36.107 0 65.372-28.995 65.372-64.769s-29.265-64.769-65.372-64.769c-36.107 0-65.372 28.995-65.372 64.769s29.265 64.769 65.372 64.769v0zM1111.318 0.769c0-35.774-29.265-64.769-65.372-64.769s-65.372 28.995-65.372 64.769c0 35.774 29.265 64.769 65.372 64.769s65.372-28.995 65.372-64.769zM923.608 417.882h-361.412v80.314h361.412v-80.314zM702.745 277.333v361.412h80.314v-361.412h-80.314z" />
<glyph unicode="&#xe911;" glyph-name="btn_remove" d="M915.459 924.427l85.403-82.473-865.967-896.735-85.403 82.473 865.967 896.735zM1014.781 44.541l-82.473-85.403-896.735 865.967 82.473 85.403 896.735-865.967z" />
<glyph unicode="&#xe912;" glyph-name="spinner2" d="M1024 448c-1.278 66.862-15.784 133.516-42.576 194.462-26.704 61-65.462 116.258-113.042 161.92-47.552 45.696-103.944 81.82-164.984 105.652-61.004 23.924-126.596 35.352-191.398 33.966-64.81-1.282-129.332-15.374-188.334-41.356-59.048-25.896-112.542-63.47-156.734-109.576-44.224-46.082-79.16-100.708-102.186-159.798-23.114-59.062-34.128-122.52-32.746-185.27 1.286-62.76 14.964-125.148 40.134-182.206 25.088-57.1 61.476-108.828 106.11-151.548 44.61-42.754 97.472-76.504 154.614-98.72 57.118-22.304 118.446-32.902 179.142-31.526 60.708 1.29 120.962 14.554 176.076 38.914 55.15 24.282 105.116 59.48 146.366 102.644 41.282 43.14 73.844 94.236 95.254 149.43 13.034 33.458 21.88 68.4 26.542 103.798 1.246-0.072 2.498-0.12 3.762-0.12 35.346 0 64 28.652 64 64 0 1.796-0.094 3.572-0.238 5.332h0.238zM922.306 278.052c-23.472-53.202-57.484-101.4-99.178-141.18-41.67-39.81-91-71.186-144.244-91.79-53.228-20.678-110.29-30.452-166.884-29.082-56.604 1.298-112.596 13.736-163.82 36.474-51.25 22.666-97.684 55.49-135.994 95.712-38.338 40.198-68.528 87.764-88.322 139.058-19.87 51.284-29.228 106.214-27.864 160.756 1.302 54.552 13.328 108.412 35.254 157.69 21.858 49.3 53.498 93.97 92.246 130.81 38.73 36.868 84.53 65.87 133.874 84.856 49.338 19.060 102.136 28.006 154.626 26.644 52.5-1.306 104.228-12.918 151.562-34.034 47.352-21.050 90.256-51.502 125.624-88.782 35.396-37.258 63.21-81.294 81.39-128.688 18.248-47.392 26.782-98.058 25.424-148.496h0.238c-0.144-1.76-0.238-3.536-0.238-5.332 0-33.012 24.992-60.174 57.086-63.624-6.224-34.822-16.53-68.818-30.78-100.992z" />
<glyph unicode="&#xe913;" glyph-name="spinner3" d="M512 656.904c-32.964 0-59.686 26.724-59.686 59.686v179.060c0 32.964 26.722 59.686 59.686 59.686 32.962 0 59.688-26.722 59.688-59.686v-179.060c0-32.964-26.726-59.686-59.688-59.686zM512-36.956c-20.602 0-37.304 16.702-37.304 37.304v179.060c0 20.602 16.702 37.304 37.304 37.304 20.604 0 37.304-16.704 37.304-37.304v-179.060c0-20.602-16.7-37.304-37.304-37.304zM377.756 624.64c-19.34 0-38.146 10.034-48.512 27.988l-89.53 155.070c-15.452 26.764-6.282 60.986 20.482 76.438 26.762 15.45 60.986 6.284 76.438-20.482l89.53-155.072c15.452-26.764 6.282-60.986-20.482-76.438-8.81-5.084-18.432-7.504-27.926-7.504zM735.856 26.744c-11.602 0-22.886 6.022-29.108 16.792l-89.53 155.070c-9.27 16.056-3.77 36.592 12.29 45.864 16.056 9.264 36.59 3.77 45.864-12.292l89.532-155.068c9.27-16.058 3.768-36.592-12.292-45.864-5.286-3.048-11.060-4.502-16.756-4.502zM279.344 530.060c-8.86 0-17.838 2.256-26.064 7.006l-155.072 89.53c-24.978 14.422-33.538 46.362-19.116 71.342 14.42 24.978 46.364 33.538 71.342 19.116l155.070-89.53c24.98-14.422 33.538-46.362 19.116-71.34-9.668-16.756-27.226-26.124-45.276-26.124zM899.648 194.326c-5.064 0-10.196 1.29-14.894 4.004l-155.068 89.53c-14.274 8.24-19.164 26.494-10.924 40.768 8.242 14.276 26.496 19.166 40.766 10.924l155.070-89.532c14.274-8.24 19.164-26.492 10.924-40.766-5.53-9.574-15.562-14.928-25.874-14.928zM243.41 399.504h-179.060c-26.784 0-48.496 21.712-48.496 48.496s21.712 48.496 48.496 48.496h179.060c26.784 0 48.496-21.712 48.496-48.496s-21.712-48.496-48.496-48.496zM959.65 418.156c-0.002 0 0 0 0 0h-179.060c-16.482 0.002-29.844 13.364-29.844 29.844s13.364 29.844 29.844 29.844c0.002 0 0 0 0 0h179.060c16.482 0 29.844-13.362 29.844-29.844 0-16.48-13.364-29.844-29.844-29.844zM124.366 179.402c-15.472 0-30.518 8.028-38.81 22.39-12.362 21.41-5.026 48.79 16.384 61.148l155.072 89.532c21.41 12.368 48.79 5.028 61.15-16.384 12.362-21.412 5.026-48.79-16.384-61.15l-155.072-89.53c-7.050-4.070-14.748-6.006-22.34-6.006zM744.632 552.448c-10.314 0-20.346 5.352-25.874 14.926-8.24 14.274-3.35 32.526 10.924 40.768l155.070 89.528c14.272 8.236 32.526 3.352 40.768-10.922 8.24-14.274 3.35-32.526-10.924-40.768l-155.070-89.528c-4.7-2.714-9.83-4.004-14.894-4.004zM288.136 19.284c-6.962 0-14.016 1.774-20.48 5.504-19.626 11.332-26.35 36.428-15.020 56.054l89.53 155.070c11.33 19.628 36.426 26.352 56.054 15.022 19.626-11.332 26.35-36.43 15.020-56.054l-89.53-155.072c-7.598-13.166-21.392-20.524-35.574-20.524zM646.266 650.758c-5.062 0-10.196 1.29-14.894 4.002-14.274 8.242-19.164 26.494-10.924 40.766l89.534 155.070c8.24 14.274 26.492 19.166 40.766 10.922 14.274-8.242 19.164-26.494 10.924-40.766l-89.532-155.070c-5.53-9.57-15.56-14.924-25.874-14.924z" />
<glyph unicode="&#xe914;" glyph-name="spinner8" d="M512-64c-136.76 0-265.334 53.258-362.040 149.96-96.702 96.706-149.96 225.28-149.96 362.040 0 96.838 27.182 191.134 78.606 272.692 50 79.296 120.664 143.372 204.356 185.3l43-85.832c-68.038-34.084-125.492-86.186-166.15-150.67-41.746-66.208-63.812-142.798-63.812-221.49 0-229.382 186.618-416 416-416s416 186.618 416 416c0 78.692-22.066 155.282-63.81 221.49-40.66 64.484-98.114 116.584-166.15 150.67l43 85.832c83.692-41.928 154.358-106.004 204.356-185.3 51.422-81.558 78.604-175.854 78.604-272.692 0-136.76-53.258-265.334-149.96-362.040-96.706-96.702-225.28-149.96-362.040-149.96z" />
<glyph unicode="&#xe915;" glyph-name="tab_uc_2" d="M213.333 73.315c13.668 6.568 28.121 11.261 42.989 13.672l103.71 16.817c25.432 4.124 46.17 28.436 46.17 54.279v66.727c-26.793 30.873-34.536 78.247-45.851 129.597-12.63-2.685-16.983 16.883-25.037 54.773s-33.257 76.717-10.469 81.561c2.879 0.612 5.6 0.671 8.175 0.23l-8.676 127.245c-3.004 44.050 10.97 80.693 37.803 96.884s59.382 46.207 95.286 57.744c35.904 11.537 69.791 20.966 104.329 14.243s51.685-19.201 107.225-42.732c33.518-14.201 56.5-72.982 52.875-126.138l-8.681-127.318c2.694 0.519 5.55 0.488 8.579-0.156 22.788-4.844-2.415-43.671-10.469-81.561s-12.406-57.457-27.136-54.010c-9.342-52.021-17.332-99.456-44.151-130.36v-66.727c0-25.906 20.572-50.582 45.949-55.257l112.315-20.688c11.104-2.045 22.272-5.295 33.316-9.581-84.371-68.161-191.748-108.978-308.659-108.978-117.343 0-225.082 41.12-309.594 109.736v0zM0 448c0 282.77 229.23 512 512 512s512-229.23 512-512c0-282.77-229.23-512-512-512s-512 229.23-512 512zM942.080 448c0 260.148-169.932 430.080-430.080 430.080s-430.080-169.932-430.080-430.080c0-260.148 169.932-430.080 430.080-430.080s430.080 169.932 430.080 430.080z" />
<glyph unicode="&#xe916;" glyph-name="trophy" d="M832 768v128h-640v-128h-192v-128c0-106.038 85.958-192 192-192 20.076 0 39.43 3.086 57.62 8.802 46.174-66.008 116.608-113.796 198.38-130.396v-198.406h-64c-70.694 0-128-57.306-128-128h512c0 70.694-57.306 128-128 128h-64v198.406c81.772 16.6 152.206 64.386 198.38 130.396 18.19-5.716 37.544-8.802 57.62-8.802 106.042 0 192 85.962 192 192v128h-192zM192 524c-63.962 0-116 52.038-116 116v64h116v-64c0-40.186 7.43-78.632 20.954-114.068-6.802-1.246-13.798-1.932-20.954-1.932zM948 640c0-63.962-52.038-116-116-116-7.156 0-14.152 0.686-20.954 1.932 13.524 35.436 20.954 73.882 20.954 114.068v64h116v-64z" />
<glyph unicode="&#xe917;" glyph-name="tab_custom" horiz-adv-x="1451" d="M917.896 217.098c0 10.039 0 10.039 0 64.504 0 3.982-10.1-12.681 40.94 66.052 20.726 31.971 34.699 58.924 43.835 88.46-2.722-8.801-10.356-14.812-15.169-16.391 14.28 4.684 22.622 8.998 32.99 20.96 10.681 12.324 18.028 29.090 23.443 52.101 9.374 39.84 4.641 66.253-13.215 87.898-1.158 1.404-3.816 4.461-3.945 4.616 2.463-2.973 5.004-9.504 4.267-15.951 2.398 20.973 3.63 41.128 3.63 60.042 0 153.854-90.787 297.026-225.816 308.599-62.866 5.388-121.031-0.633-172.518-14.028-23.528-6.121-40.764-12.421-50.806-17.024l10.625 3.185c-17.658-2.717-42.096-9.463-67.229-22.543-35.585-18.52-61.848-45.234-72.104-82.155-13.537-48.732-18.837-148.151-8.167-240.451-0.639 5.525 0.775 9.91 1.945 11.735-0.436-0.68-3.867-5.591-3.751-5.422-16.017-23.323-20.846-47.726-10.314-81.318 5.013-15.986 11.316-28.753 19.288-39.181 4.271-5.587 8.823-10.269 13.878-14.533 1.809-1.526 3.546-2.889 5.559-4.398 0.634-0.475 2.966-2.199 3.418-2.54-0.151 0.114-2.428 2.892-3.311 5.749 19.653-63.59 36.786-96.060 77.247-143.601l-9.576 26.026v-100.392l32.954 39.506c-2.315-0.422-6.568-1.214-12.482-2.343-9.809-1.872-20.728-4.012-32.482-6.388-33.617-6.795-67.249-14.126-98.744-21.739-39.556-9.563-72.946-18.9-98.551-27.939-32.54-11.488-52.358-21.628-64.113-37.791-15.78-21.697-23.208-53.323-26.674-95.116-2.213-26.68-2.441-54.58-1.521-80.312 0.186-5.194 0.375-9.039 0.51-11.258l2.295-37.718h979.337l2.077 37.963c0.131 2.393 0.317 6.568 0.5 12.192 0.786 24.127 0.723 49.975-0.784 74.577-3.225 52.653-10.777 86.436-33.448 106.273-15.282 13.372-52.778 25.316-130.45 46.010-9.32 2.483-19.045 5.030-29.134 7.634-31.87 8.223-65.964 16.649-100.051 24.826-11.925 2.861-23 5.486-32.944 7.82-5.979 1.403-10.262 2.4-12.567 2.932l-9.031-39.128h40.157zM837.582 217.098v-31.944l31.126-7.184c2.212-0.511 6.399-1.485 12.279-2.864 9.82-2.305 20.768-4.9 32.56-7.729 33.676-8.078 67.344-16.399 98.719-24.494 9.892-2.552 19.414-5.047 28.523-7.473 29.713-7.917 54.435-14.959 72.912-20.844 9.745-3.104 17.55-5.825 23.107-8.047 2.412-0.965 4.233-1.77 5.332-2.327-0.375 0.19-1.213 0.712-3.111 2.372-2.031 1.777-2.494 2.479-2.318 2.075 1.076-2.469 2.257-6.314 3.365-11.271 2.376-10.63 4.101-24.844 5.124-41.544 1.33-21.716 1.387-45.224 0.676-67.052-0.163-5.005-0.323-8.593-0.423-10.42l40.097 37.963h-903.529l40.083-37.718c-0.096 1.575-0.253 4.754-0.413 9.249-0.816 22.829-0.612 47.781 1.298 70.805 2.305 27.795 7.147 48.41 11.588 54.516-1.514-2.082-2.504-3.001-2.999-3.355 0.878 0.629 2.506 1.594 4.772 2.753 5.672 2.902 13.845 6.27 24.123 9.898 22.539 7.957 53.562 16.632 90.687 25.607 30.4 7.349 63.084 14.473 95.784 21.083 11.457 2.316 22.091 4.4 31.623 6.219 5.691 1.086 9.728 1.838 11.834 2.222l32.954 6.008v148.664l-9.576 11.252c-33.081 38.871-45.115 61.676-61.677 115.263-4.829 15.626-12.887 25.456-24.996 34.608-7.102 5.367-6.415 4.788-7.476 6.176-1.929 2.523-4.108 6.936-6.459 14.434-2.705 8.625-2.864 7.821-0.115 11.823-1.074-1.564 3.713 5.288 5.16 7.545 7.934 12.377 12.040 25.112 10.223 40.831-9.546 82.573-4.794 171.71 5.768 209.732 3.411 12.281 14.188 23.243 31.799 32.408 9.255 4.817 19.517 8.653 29.819 11.497 6.090 1.681 10.578 2.607 12.544 2.909l5.535 0.852 5.091 2.333c1.056 0.484 3.957 1.683 8.578 3.372 8.225 3.007 17.93 6.059 28.987 8.936 43.087 11.21 92.218 16.296 145.438 11.734 86.16-7.385 152.361-111.785 152.361-228.579 0-15.747-1.047-32.873-3.11-50.918-2.062-18.029 3.351-31.945 13.687-44.418 0.957-1.154 3.536-4.122 3.832-4.48 0.806-0.977 0.928-1.658-3.010-18.395-1.597-6.786-3.226-11.878-4.773-15.407-0.806-1.84-1.246-2.561-1.182-2.488 1.72 1.984 4.13 3.23 2.668 2.751-7.329-2.404-12.357-4.633-18.645-9.584-8.66-6.819-14.58-15.935-17.88-26.604-6.557-21.197-17.438-42.187-34.5-68.506-2.157-3.328-27.022-40.217-33.234-50.466-13.529-22.322-20.628-39.88-20.628-59.274 0-54.464 0-54.464 0-64.504v0zM1101.536 722.699c20.395-1.414 39.294-4.626 56.367-9.068 13.675-3.558 22.92-6.937 26.957-8.787l5.091-2.333 5.535-0.852c1.144-0.176 4.193-0.805 8.433-1.975 7.218-1.992 14.397-4.676 20.774-7.995 11.224-5.842 17.555-12.281 19.326-18.655 7.669-27.608 11.214-94.11 4.095-155.69-1.676-14.495 2.107-26.228 9.229-37.338 1.221-1.904 5.021-7.344 4.090-5.988 0.466-0.679 0.047 0.175-0.257 1.711-0.175 0.882-0.213 0.421-1.082-2.353-1.467-4.679-2.628-7.029-3.368-7.997-0.054-0.071 0.757 0.613-3.835-2.857-10.674-8.067-18.037-17.050-22.393-31.144-12.214-39.52-20.746-55.69-44.999-84.187l-9.576-11.252v-123.046l31.172-7.156c1.244-0.286 3.684-0.858 7.145-1.688 5.826-1.398 12.332-3.001 19.344-4.781 19.996-5.076 39.975-10.535 58.501-16.137 21.405-6.472 39.37-12.695 52.456-18.304 5.853-2.509 10.457-4.784 13.538-6.637 0.944-0.568 0.765-0.423-1.023 2.035 2.013-2.768 5.382-17.111 6.995-36.553 1.415-17.057 1.567-35.665 0.959-52.664-0.119-3.332-0.234-5.668-0.302-6.787l40.083 37.718h-95.768c-22.178 0-40.157-17.979-40.157-40.157s17.979-40.157 40.157-40.157h133.556l2.295 37.718c0.107 1.764 0.255 4.765 0.399 8.796 0.711 19.902 0.535 41.458-1.183 62.171-2.773 33.439-8.729 58.794-22.081 77.153-9.559 13.144-23.99 21.821-45.827 31.181-16.301 6.987-36.837 14.101-60.851 21.362-19.811 5.99-40.907 11.755-61.987 17.106-7.365 1.869-14.208 3.556-20.363 5.032-3.727 0.894-6.422 1.526-7.916 1.869l31.172-39.139v76.289l-9.576-26.026c31.632 37.168 45.265 63.003 60.57 112.526-1.357-4.391-4.327-8.014-5.914-9.214 0.879 0.655 0.879 0.655 2.567 1.908 1.665 1.248 3.122 2.392 4.657 3.686 4.355 3.673 8.299 7.73 11.99 12.558 6.783 8.873 12.069 19.578 16.197 32.745 8.944 28.523 4.675 50.094-9.089 70.136-0.027 0.039-2.472 3.539-2.681 3.866 1.982-3.091 3.719-8.479 2.939-15.228 8.243 71.307 4.15 148.091-6.494 186.408-8.615 31.014-30.432 53.205-59.631 68.402-20.199 10.513-39.704 15.897-54.073 18.108l10.625-3.185c-8.122 3.723-21.745 8.702-40.198 13.503-21.722 5.651-45.502 9.693-71.033 11.463-22.125 1.534-41.304-15.158-42.839-37.283s15.158-41.304 37.283-42.839v0zM287.6 791.357c-18.453-4.801-32.076-9.78-40.198-13.503l10.625 3.185c-14.369-2.211-33.874-7.595-54.073-18.108-29.199-15.197-51.016-37.388-59.631-68.402-10.644-38.317-14.737-115.102-6.494-186.408-0.78 6.748 0.957 12.136 2.939 15.228-0.21-0.327-2.654-3.826-2.681-3.866-13.764-20.043-18.033-41.613-9.089-70.136 4.129-13.167 9.414-23.872 16.197-32.745 3.691-4.828 7.635-8.886 11.99-12.558 1.535-1.295 2.992-2.438 4.657-3.686 1.688-1.253 1.688-1.253 2.567-1.908-1.587 1.199-4.557 4.823-5.914 9.214 15.305-49.523 28.938-75.357 60.57-112.526l-9.576 26.026-1.106-44.052 32.278 6.902c-1.494-0.343-28.551-6.007-32.278-6.902-6.154-1.477 11.364 1.869 4 0-21.079-5.351-42.176-11.115-61.987-17.106-24.013-7.261-44.549-14.375-60.851-21.362-21.837-9.36-36.268-18.037-45.827-31.181-13.352-18.359-19.308-43.715-22.081-77.153-1.718-20.713-1.894-42.269-1.183-62.171 0.144-4.031 0.292-7.033 0.399-8.796l2.295-37.718h133.556c22.178 0 40.157 17.979 40.157 40.157s-17.979 40.157-40.157 40.157h-55.029c-0.608 16.999-1.415 4.676 0 21.733 1.612 19.442 4.981 33.785 6.995 36.553-1.788-2.459-1.967-2.603-1.023-2.035 3.081 1.853 7.685 4.128 13.538 6.637 13.086 5.609 31.050 11.832 52.456 18.304 18.526 5.602 38.505 11.061 58.501 16.137 7.012 1.78 13.518 3.383 19.344 4.781 3.461 0.831 5.901 1.402 7.145 1.688l31.172 7.156v123.046l-9.576 11.252c-24.253 28.497-32.786 44.667-44.999 84.187-4.356 14.094-11.719 23.076-22.393 31.144-4.591 3.47-3.781 2.786-3.835 2.857-0.74 0.968-1.901 3.319-3.368 7.997-0.87 2.773-0.908 3.234-1.082 2.353-1.189-3.067 2.612 2.373 3.833 4.277 7.122 11.11 10.905 22.843 9.229 37.338-7.119 61.58-3.574 128.082 4.095 155.69 1.771 6.374 8.101 12.813 19.326 18.655 6.377 3.319 13.556 6.003 20.774 7.995 4.24 1.17 7.289 1.799 8.433 1.975l5.535 0.852 5.091 2.333c4.036 1.85 13.281 5.229 26.957 8.787 17.073 4.442 35.973 7.654 56.367 9.068 22.125 1.534 38.817 20.714 37.283 42.839s-20.714 38.817-42.839 37.283c-25.531-1.77-49.311-5.812-71.033-11.463z" />
<glyph unicode="&#xe918;" glyph-name="tab_custom_active" horiz-adv-x="1365" d="M979.712 213.015c-8.163 2.483-16.681 5.030-25.518 7.634-27.915 8.223-57.778 16.649-87.635 24.826-10.445 2.861-20.146 5.486-28.855 7.82-5.237 1.403-8.989 2.4-11.008 2.932l-7.91-39.128h35.173c0 10.039 0 10.039 0 64.504 0 3.982-8.846-12.681 35.859 66.052 18.154 31.971 30.392 58.924 38.395 88.46-2.384-8.801-9.071-14.812-13.286-16.391 12.508 4.684 19.814 8.998 28.896 20.96 9.355 12.324 15.791 29.090 20.533 52.101 8.211 39.84 4.065 66.253-11.575 87.898-1.015 1.404-3.342 4.461-3.455 4.616 2.158-2.973 4.383-9.504 3.737-15.951 2.101 20.973 3.18 41.128 3.18 60.042 0 153.854-79.52 297.026-197.791 308.599-55.064 5.388-106.010-0.633-151.108-14.028-20.608-6.121-35.705-12.421-44.501-17.024l9.307 3.185c-15.467-2.717-36.872-9.463-58.886-22.543-31.169-18.52-54.172-45.234-63.155-82.155-11.857-48.732-16.499-148.151-7.153-240.451-0.559 5.525 0.679 9.91 1.704 11.735-0.382-0.68-3.387-5.591-3.285-5.422-14.029-23.323-18.259-47.726-9.034-81.318 4.391-15.986 9.912-28.753 16.894-39.181 3.741-5.587 7.728-10.269 12.156-14.533 1.585-1.526 3.106-2.889 4.869-4.398 0.555-0.475 2.598-2.199 2.994-2.54-0.132 0.114-2.126 2.892-2.9 5.749 17.214-63.59 32.221-96.060 67.661-143.601l-8.387 26.026v-100.392l28.865 39.506c-2.028-0.422-5.752-1.214-10.933-2.343-8.592-1.872-18.156-4.012-28.451-6.388-29.445-6.795-58.903-14.126-86.489-21.739-34.647-9.563-63.893-18.9-86.32-27.939-28.502-11.488-45.86-21.628-56.156-37.791-13.821-21.697-20.328-53.323-23.364-95.116-1.938-26.68-2.138-54.58-1.332-80.312 0.163-5.194 0.329-9.039 0.447-11.258l2.010-37.718h857.798l1.819 37.963c0.115 2.393 0.278 6.568 0.438 12.192 0.688 24.127 0.633 49.975-0.687 74.577-2.825 52.653-9.44 86.436-29.297 106.273-13.386 13.372-46.228 25.316-114.26 46.010zM1021.222 719.059c0-43.873-1.771-114.096 0-120.471 5.013-18.048 24.146-30.009 22.857-75.24s-14.942-39.765-22.857-60.827c-3.416-9.091-33.243-86.736-57.839-134.875-7.303-14.293-12.010-33.852 0.632-36.334 52.015-10.211 187.912-39.696 217.441-74.214 46.769-40.157 47.25-195.473 47.25-195.473h133.556l2.295 37.718c0.107 1.764 0.255 4.765 0.399 8.796 0.711 19.902 0.535 41.458-1.183 62.171-2.773 33.439-8.729 58.794-22.081 77.153-9.559 13.144-23.99 21.821-45.827 31.181-16.301 6.987-36.837 14.101-60.851 21.362-19.811 5.99-40.907 11.755-61.987 17.106-7.365 1.869-14.208 3.556-20.363 5.032-3.727 0.894-6.422 1.526-7.916 1.869l31.172-39.139v76.289l-9.576-26.026c31.632 37.168 45.265 63.003 60.57 112.526-1.357-4.391-4.327-8.014-5.914-9.214 0.879 0.655 0.879 0.655 2.567 1.908 1.665 1.248 3.122 2.392 4.657 3.686 4.355 3.673 8.299 7.73 11.99 12.558 6.783 8.873 12.069 19.578 16.197 32.745 8.944 28.523 4.675 50.094-9.089 70.136-0.027 0.039-2.472 3.539-2.681 3.866 1.982-3.091 3.719-8.479 2.939-15.228 8.243 71.307 4.15 148.091-6.494 186.408-8.615 31.014-30.432 53.205-59.631 68.402-20.199 10.513-129.148 38.119-154.679 39.889-22.125 1.534-22.857 0-22.857 0s17.3-39.889 17.3-83.762zM356.585 719.059c0-43.873 1.771-114.096 0-120.471-5.013-18.048-24.146-30.009-22.857-75.24s14.942-39.765 22.857-60.827c3.416-9.091 33.243-86.736 57.839-134.875 7.303-14.293 12.010-33.852-0.632-36.334-52.015-10.211-187.912-39.696-217.441-74.214-46.769-40.157-47.25-195.473-47.25-195.473h-133.556l-2.295 37.718c-0.107 1.764-0.255 4.765-0.399 8.796-0.711 19.902-0.535 41.458 1.183 62.171 2.773 33.439 8.729 58.794 22.081 77.153 9.559 13.144 23.99 21.821 45.827 31.181 16.301 6.987 36.837 14.101 60.851 21.362 19.811 5.99 40.907 11.755 61.987 17.106 7.365 1.869 14.208 3.556 20.363 5.032 3.727 0.894 6.422 1.526 7.916 1.869l-31.172-39.139v76.289l9.576-26.026c-31.632 37.168-45.265 63.003-60.57 112.526 1.357-4.391 4.327-8.014 5.914-9.214-0.879 0.655-0.879 0.655-2.567 1.908-1.665 1.248-3.122 2.392-4.657 3.686-4.355 3.673-8.299 7.73-11.99 12.558-6.783 8.873-12.069 19.578-16.197 32.745-8.944 28.523-4.675 50.094 9.089 70.136 0.027 0.039 2.472 3.539 2.681 3.866-1.982-3.091-3.719-8.479-2.939-15.228-8.243 71.307-4.15 148.091 6.494 186.408 8.615 31.014 30.432 53.205 59.631 68.402 20.199 10.513 129.148 38.119 154.679 39.889 22.125 1.534 22.857 0 22.857 0s-17.3-39.889-17.3-83.762z" />
<glyph unicode="&#xe919;" glyph-name="qrcode" d="M320 896h-256v-256h256v256zM384 960v0-384h-384v384h384zM128 832h128v-128h-128zM960 896h-256v-256h256v256zM1024 960v0-384h-384v384h384zM768 832h128v-128h-128zM320 256h-256v-256h256v256zM384 320v0-384h-384v384h384zM128 192h128v-128h-128zM448 960h64v-64h-64zM512 896h64v-64h-64zM448 832h64v-64h-64zM512 768h64v-64h-64zM448 704h64v-64h-64zM512 640h64v-64h-64zM448 576h64v-64h-64zM448 448h64v-64h-64zM512 384h64v-64h-64zM448 320h64v-64h-64zM512 256h64v-64h-64zM448 192h64v-64h-64zM512 128h64v-64h-64zM448 64h64v-64h-64zM512 0h64v-64h-64zM960 448h64v-64h-64zM64 448h64v-64h-64zM128 512h64v-64h-64zM0 512h64v-64h-64zM256 512h64v-64h-64zM320 448h64v-64h-64zM384 512h64v-64h-64zM576 448h64v-64h-64zM640 512h64v-64h-64zM704 448h64v-64h-64zM768 512h64v-64h-64zM832 448h64v-64h-64zM896 512h64v-64h-64zM960 320h64v-64h-64zM576 320h64v-64h-64zM640 384h64v-64h-64zM704 320h64v-64h-64zM832 320h64v-64h-64zM896 384h64v-64h-64zM960 192h64v-64h-64zM576 192h64v-64h-64zM640 256h64v-64h-64zM768 256h64v-64h-64zM832 192h64v-64h-64zM896 256h64v-64h-64zM960 64h64v-64h-64zM640 128h64v-64h-64zM704 64h64v-64h-64zM768 128h64v-64h-64zM832 64h64v-64h-64zM640 0h64v-64h-64zM768 0h64v-64h-64zM896 0h64v-64h-64z" />
<glyph unicode="&#xe91a;" glyph-name="users" horiz-adv-x="1152" d="M768 189.388v52.78c70.498 39.728 128 138.772 128 237.832 0 159.058 0 288-192 288s-192-128.942-192-288c0-99.060 57.502-198.104 128-237.832v-52.78c-217.102-17.748-384-124.42-384-253.388h896c0 128.968-166.898 235.64-384 253.388zM327.196 164.672c55.31 36.15 124.080 63.636 199.788 80.414-15.054 17.784-28.708 37.622-40.492 59.020-30.414 55.234-46.492 116.058-46.492 175.894 0 86.042 0 167.31 30.6 233.762 29.706 64.504 83.128 104.496 159.222 119.488-16.914 76.48-61.94 126.75-181.822 126.75-192 0-192-128.942-192-288 0-99.060 57.502-198.104 128-237.832v-52.78c-217.102-17.748-384-124.42-384-253.388h279.006c14.518 12.91 30.596 25.172 48.19 36.672z" />
<glyph unicode="&#xe91b;" glyph-name="download" d="M512 384l256 256h-192v256h-128v-256h-192zM744.726 488.728l-71.74-71.742 260.080-96.986-421.066-157.018-421.066 157.018 260.080 96.986-71.742 71.742-279.272-104.728v-256l512-192 512 192v256z" />
<glyph unicode="&#xe91c;" glyph-name="login_icon_password" horiz-adv-x="614" d="M492.257 235.036c1.877 107.528-84.786 196.557-193.174 198.449s-198.105-84.059-199.982-191.587c-1.877-107.528 84.786-196.557 193.174-198.449s198.105 84.059 199.982 191.587zM251.564 527.464l12.028 418.759 98.289-1.716-2.563-73.12 221.15-3.86-1.702-97.509-221.15 3.86-1.705-73.128 122.861-2.145-1.702-97.509-122.861 2.145-4.355-77.493c138.992-25.689 243.222-147.53 240.693-292.428-2.82-161.548-137.133-290.222-299.973-287.38s-292.581 136.126-289.761 297.674c2.529 144.898 110.948 263.027 250.752 283.85z" />
<glyph unicode="&#xe91d;" glyph-name="login_icon_user" horiz-adv-x="945" d="M855.727-64c-12.191 162.048-106.999 285.93-250.103 342.986-45.48-22.144-79.159-22.986-133.009-22.986s-87.99 0.842-133.47 22.986c-143.105-57.056-232.663-180.938-244.854-342.986h-94.291c11.275 173.056 113.195 320.768 258.006 395.552-80.759 64.448-132.809 164.192-132.809 276.448 0 194.4 155.549 352 347.418 352s347.418-157.6 347.418-352c0-112.256-52.050-212-132.809-276.448 66.886-34.542 124.622-84.642 168.502-145.612 51.121-71.032 83.436-156.816 89.503-249.94h-89.503zM729.93 603.292c0 141.397-113.111 256-252.668 256s-252.668-114.603-252.668-256c0-141.397 113.111-256 252.668-256s252.668 114.603 252.668 256v0z" />
<glyph unicode="&#xe91e;" glyph-name="user-plus" d="M384 224c0 151.234 95.874 280.486 230.032 330.2 16.28 36.538 25.968 77.164 25.968 117.8 0 159.058 0 288-192 288s-192-128.942-192-288c0-99.060 57.502-198.104 128-237.832v-52.78c-217.102-17.748-384-124.42-384-253.388h397.306c-8.664 30.53-13.306 62.732-13.306 96zM736 512c-159.058 0-288-128.942-288-288s128.942-288 288-288c159.056 0 288 128.942 288 288s-128.942 288-288 288zM896 192h-128v-128h-64v128h-128v64h128v128h64v-128h128v-64z" />
<glyph unicode="&#xe91f;" glyph-name="profile" d="M864 960h-768c-52.8 0-96-43.2-96-96v-832c0-52.8 43.2-96 96-96h768c52.8 0 96 43.2 96 96v832c0 52.8-43.2 96-96 96zM832 64h-704v768h704v-768zM256 384h448v-64h-448zM256 256h448v-64h-448zM320 672c0 53.019 42.981 96 96 96s96-42.981 96-96c0-53.019-42.981-96-96-96s-96 42.981-96 96zM480 576h-128c-52.8 0-96-28.8-96-64v-64h320v64c0 35.2-43.2 64-96 64z" />
<glyph unicode="&#xe920;" glyph-name="icon_setting" d="M906.071 532.805c-17.253 2.487-35.593 18.030-40.955 34.505l-25.646 62.405c-8.005 15.387-6.139 39.401 4.197 53.234l41.733 55.488c10.336 13.911 9.559 35.982-2.021 48.96l-45.618 45.696c-13.056 11.424-35.049 12.357-49.038 1.865l-55.41-41.577c-13.911-10.414-37.769-12.357-53.234-4.274l-62.327 25.646c-16.631 5.362-32.096 23.703-34.505 40.878l-9.87 68.622c-2.409 17.253-18.574 32.795-35.749 34.583 0 0-10.725 1.166-32.407 1.166s-32.407-1.166-32.407-1.166c-17.253-1.787-33.417-17.33-35.904-34.583l-9.792-68.622c-2.409-17.175-17.952-35.515-34.505-40.878l-62.327-25.646c-15.387-8.005-39.323-6.139-53.234 4.274l-55.488 41.655c-13.911 10.414-35.982 9.559-48.96-1.943l-45.696-45.696c-11.424-12.978-12.357-35.049-1.943-48.882l41.655-55.566c10.491-13.833 12.279-37.847 4.274-53.157l-25.723-62.482c-5.285-16.475-23.703-32.018-40.878-34.505l-68.622-9.714c-17.175-2.487-32.718-18.574-34.505-35.904 0 0-1.166-10.725-1.166-32.407s1.166-32.407 1.166-32.407c1.787-17.33 17.33-33.417 34.505-35.904l68.622-9.792c17.175-2.487 35.593-18.030 40.878-34.505l25.723-62.327c8.005-15.387 6.139-39.401-4.274-53.234l-41.655-55.488c-10.414-13.911-12.901-32.795-5.518-41.888s28.521-31.63 28.521-31.707c0.078-0.078 7.227-6.606 15.776-14.455 8.626-7.927 43.909-18.962 57.819-8.549l55.488 41.655c13.833 10.336 37.769 12.357 53.157 4.197l62.327-25.646c16.631-5.285 32.174-23.625 34.583-40.878l9.792-68.622c2.409-17.175 18.574-32.795 35.826-34.583 0 0 10.802-1.166 32.407-1.166 21.682 0 32.407 1.166 32.407 1.166 17.253 1.787 33.417 17.408 35.826 34.583l9.87 68.622c2.409 17.175 17.874 35.593 34.505 40.878l62.327 25.723c15.387 8.082 39.323 6.139 53.234-4.274l55.488-41.655c13.989-10.414 35.904-9.637 48.96 1.943l45.618 45.618c11.502 13.134 12.357 35.127 1.943 49.038l-41.655 55.488c-10.414 13.833-12.279 37.847-4.197 53.234l25.646 62.327c5.285 16.553 23.625 32.096 40.955 34.505l68.466 9.792c17.33 2.487 32.795 18.574 34.661 35.904 0 0 1.088 10.725 1.088 32.407s-1.088 32.407-1.088 32.407c-1.865 17.253-17.33 33.417-34.661 35.904l-68.466 9.714zM505.221 328.416c-69.787 0-126.363 56.576-126.363 126.363s56.576 126.286 126.363 126.286c69.71 0 126.286-56.576 126.286-126.286 0-69.787-56.576-126.363-126.286-126.363v0z" />
<glyph unicode="&#xe921;" glyph-name="icon_scan" horiz-adv-x="1084" d="M980.796-64h-221.923v76.814h189.699c29.906 0 54.159 22.936 54.159 51.191v179.217h81.33v-209.655c0-53.878-46.233-97.566-103.266-97.566v0zM1002.731 652.846v179.121c0 28.249-24.253 51.252-54.159 51.252h-189.699v76.781h221.923c57.032 0 103.266-43.656 103.266-97.532v-209.622h-81.33zM135.526 883.219c-29.942 0-54.224-22.936-54.224-51.246v-179.126h-81.302v209.622c0 53.876 46.215 97.532 103.266 97.532h221.925v-76.781h-189.665zM103.266-64c-57.050 0-103.266 43.689-103.266 97.566v209.655h81.267v-179.217h0.035c0-28.254 24.282-51.191 54.224-51.191h189.665v-76.814h-221.925zM0 401.441h1084.062v93.092h-1084.062v-93.092z" />
<glyph unicode="&#xe922;" glyph-name="icon_search_s" d="M1017.389-57.389c-8.82-8.814-23.111-8.814-31.924 0l-199.572 199.572c11.123 10.17 21.759 20.8 31.918 31.924l199.578-199.572c8.813-8.818 8.813-23.11 0-31.924v0zM451.46 57.081c-249.337 0-451.46 202.123-451.46 451.46 0 249.331 202.123 451.46 451.46 451.46s451.46-202.129 451.46-451.46c0-249.337-202.123-451.46-451.46-451.46v0zM451.46 914.85c-224.399 0-406.316-181.911-406.316-406.31 0-224.404 181.917-406.316 406.316-406.316 224.404 0 406.316 181.911 406.316 406.316 0 224.399-181.911 406.31-406.316 406.31v0z" />
<glyph unicode="&#xe923;" glyph-name="bubble2" d="M512 768c-54.932 0-107.988-8.662-157.694-25.742-46.712-16.054-88.306-38.744-123.628-67.444-66.214-53.798-102.678-122.984-102.678-194.814 0-40.298 11.188-79.378 33.252-116.152 22.752-37.92 56.982-72.586 98.988-100.252 30.356-19.992 50.78-51.948 56.176-87.894 1.8-11.984 2.928-24.088 3.37-36.124 7.47 6.194 14.75 12.846 21.88 19.976 24.154 24.152 56.78 37.49 90.502 37.49 5.368 0 10.762-0.336 16.156-1.024 20.974-2.666 42.398-4.020 63.676-4.020 54.934 0 107.988 8.66 157.694 25.742 46.712 16.054 88.306 38.744 123.628 67.444 66.214 53.796 102.678 122.984 102.678 194.814s-36.464 141.016-102.678 194.814c-35.322 28.698-76.916 51.39-123.628 67.444-49.706 17.080-102.76 25.742-157.694 25.742zM512 896v0c282.77 0 512-186.25 512-416 0-229.752-229.23-416-512-416-27.156 0-53.81 1.734-79.824 5.044-109.978-109.978-241.25-129.7-368.176-132.596v26.916c68.536 33.578 128 94.74 128 164.636 0 9.754-0.758 19.33-2.164 28.696-115.796 76.264-189.836 192.754-189.836 323.304 0 229.75 229.23 416 512 416z" />
<glyph unicode="&#xe924;" glyph-name="camera" d="M304 352c0-114.876 93.124-208 208-208s208 93.124 208 208-93.124 208-208 208-208-93.124-208-208zM960 704h-224c-16 64-32 128-96 128h-256c-64 0-80-64-96-128h-224c-35.2 0-64-28.8-64-64v-576c0-35.2 28.8-64 64-64h896c35.2 0 64 28.8 64 64v576c0 35.2-28.8 64-64 64zM512 68c-156.85 0-284 127.148-284 284 0 156.85 127.15 284 284 284 156.852 0 284-127.15 284-284 0-156.852-127.146-284-284-284zM960 512h-128v64h128v-64z" />
<glyph unicode="&#xe925;" glyph-name="map2" d="M672 768l-320 128-352-128v-768l352 128 320-128 352 128v768l-352-128zM384 814.27l256-102.4v-630.138l-256 102.398v630.14zM64 723.172l256 93.090v-631.8l-256-93.088v631.798zM960 172.828l-256-93.092v631.8l256 93.090v-631.798z" />
<glyph unicode="&#xe926;" glyph-name="pushpin" d="M544 960l-96-96 96-96-224-256h-224l176-176-272-360.616v-39.384h39.384l360.616 272 176-176v224l256 224 96-96 96 96-480 480zM448 416l-64 64 224 224 64-64-224-224z" />
<glyph unicode="&#xe927;" glyph-name="clipboard" d="M928 832h-288c0 70.692-57.306 128-128 128-70.692 0-128-57.308-128-128h-288c-17.672 0-32-14.328-32-32v-832c0-17.674 14.328-32 32-32h832c17.674 0 32 14.326 32 32v832c0 17.672-14.326 32-32 32zM512 896c35.346 0 64-28.654 64-64s-28.654-64-64-64c-35.346 0-64 28.654-64 64s28.654 64 64 64zM896 0h-768v768h128v-96c0-17.672 14.328-32 32-32h448c17.674 0 32 14.328 32 32v96h128v-768zM448 101.49l-205.254 237.254 58.508 58.51 146.746-114.744 274.742 242.744 58.514-58.508z" />
<glyph unicode="&#xe928;" glyph-name="coin-yen" d="M480 896c-265.096 0-480-214.904-480-480s214.904-480 480-480c265.098 0 480 214.902 480 480s-214.902 480-480 480zM480 32c-212.078 0-384 171.922-384 384s171.922 384 384 384c212.076 0 384-171.922 384-384s-171.924-384-384-384zM608 384c17.674 0 32 14.326 32 32s-14.326 32-32 32h-68.208l94.832 142.25c9.804 14.704 5.83 34.572-8.876 44.376-14.704 9.802-34.572 5.83-44.376-8.876l-101.372-152.062-101.374 152.062c-9.804 14.706-29.672 18.68-44.376 8.876-14.706-9.804-18.678-29.672-8.876-44.376l94.834-142.25h-68.208c-17.672 0-32-14.326-32-32s14.328-32 32-32h96v-64h-96c-17.672 0-32-14.326-32-32s14.328-32 32-32h96v-96c0-17.674 14.328-32 32-32s32 14.326 32 32v96h96c17.674 0 32 14.326 32 32s-14.326 32-32 32h-96v64h96z" />
<glyph unicode="&#xe2009;" glyph-name="cancel-circle" d="M512 960c-282.77 0-512-229.23-512-512s229.23-512 512-512 512 229.23 512 512-229.23 512-512 512zM512 32c-229.75 0-416 186.25-416 416s186.25 416 416 416 416-186.25 416-416-186.25-416-416-416zM672 704l-160-160-160 160-96-96 160-160-160-160 96-96 160 160 160-160 96 96-160 160 160 160z" />
</font>
</defs>
</svg>
